<svg width="16" height="24" viewBox="0 0 16 24" fill="none" xmlns="http://www.w3.org/2000/svg">
<path fill-rule="evenodd" clip-rule="evenodd" d="M2.34319 6.70711C2.73371 6.31658 3.36688 6.31658 3.7574 6.70711L13.6569 16.6066C14.0474 16.9971 14.0474 17.6303 13.6569 18.0208C13.2664 18.4113 12.6332 18.4113 12.2427 18.0208L2.34319 8.12132C1.95266 7.7308 1.95266 7.09763 2.34319 6.70711Z" fill="#3C3C3B"/>
<path fill-rule="evenodd" clip-rule="evenodd" d="M3.70711 15.7071C3.31658 15.3166 3.23744 14.7626 3.53033 14.4697L10.955 7.04505C11.2478 6.75216 11.8019 6.8313 12.1924 7.22183C12.5829 7.61235 12.6621 8.16637 12.3692 8.45926L4.94454 15.8839C4.65165 16.1768 4.09763 16.0976 3.70711 15.7071Z" fill="#3C3C3B"/>
<path fill-rule="evenodd" clip-rule="evenodd" d="M1.70711 17.7071C1.31658 17.3166 1.31658 16.6834 1.70711 16.2929L11.6066 6.3934C11.9971 6.00287 12.6303 6.00287 13.0208 6.3934C13.4113 6.78392 13.4113 7.41709 13.0208 7.80761L3.12132 17.7071C2.7308 18.0976 2.09763 18.0976 1.70711 17.7071Z" fill="#3C3C3B"/>
</svg>
